<?xml version="1.0" encoding="UTF-8"?>
<svg version="1.1" xmlns="http://www.w3.org/2000/svg" width="1280" height="992">
<path d="M0 0 C1.20179838 0.00040031 1.20179838 0.00040031 2.42787552 0.00080872 C48.09235649 0.01990676 48.09235649 0.01990676 70.82086182 2.00390625 C73.10450032 2.20198534 75.38883097 2.39036188 77.67333984 2.578125 C159.17051768 9.36068272 240.12229606 25.9253889 367.9375 77.1875 C369.68872779 77.98584007 371.44002328 78.78403167 373.19140625 79.58203125 C385.42236172 85.20912014 397.19059858 91.61954281 408.9375 98.1875 C409.80101074 98.66558105 410.66452148 99.14366211 411.55419922 99.63623047 C432.88682387 111.45702857 453.43608329 124.5340058 472.9375 139.1875 C473.51854492 139.62223633 474.09958984 140.05697266 474.69824219 140.50488281 C486.67724491 149.49789656 498.51351433 158.83778187 509.53125 168.9921875 C510.83956452 170.18581211 512.15533843 171.37221343 513.50610352 172.51757812 C519.99340342 178.04249058 525.98852774 184.05243267 532.00952148 190.07421875 C533.86227468 191.92478967 535.72288706 193.76720076 537.58398438 195.609375 C544.50459304 202.49769511 550.8803606 209.5200106 556.9375 217.1875 C557.87182662 218.28971225 558.81320494 219.38604036 559.765625 220.47265625 C613.98239445 282.64704831 643.38940845 364.65663167 638.71923828 447.03759766 C635.83049881 485.84012095 625.62591645 523.10112201 608.9375 558.1875 C608.44080811 559.2386499 608.44080811 559.2386499 607.93408203 560.31103516 C593.9506523 589.70535495 575.51444776 616.85673758 553.9375 641.1875 C552.74955822 642.56211834 551.5619873 643.93705738 550.375 645.3125 C549.23278816 646.60737023 548.08663697 647.89877155 546.9375 649.1875 C546.18855469 650.02925781 545.43960937 650.87101563 544.66796875 651.73828125 C539.02467154 657.99074998 533.19502647 664.03358854 527.25 670 C526.54955566 670.70503662 525.84911133 671.41007324 525.12744141 672.13647461 C520.55946419 676.69102607 515.82569355 680.98117741 510.9375 685.1875 C509.78102985 686.20921708 508.62603419 687.23260602 507.47265625 688.2578125 C498.29049813 696.3611853 488.7551469 703.8722252 478.9375 711.1875 C478.1419873 711.78272461 477.34647461 712.37794922 476.52685547 712.99121094 C449.50402826 733.1875 449.50402826 733.1875 445.9375 733.1875 C449.46129162 740.55150123 453.43826611 747.53369164 457.6875 754.5 C459.01956272 756.7010164 460.35023426 758.9028752 461.6796875 761.10546875 C462.02383698 761.67539551 462.36798645 762.24532227 462.7225647 762.83251953 C466.81502365 769.62246615 470.81303758 776.46751951 474.8125 783.3125 C479.67469083 791.6287252 484.55518689 799.93090596 489.53125 808.1796875 C492.8835218 813.74811785 496.18821923 819.34493416 499.5 824.9375 C500.0137468 825.80498871 500.0137468 825.80498871 500.53787231 826.69000244 C502.30038852 829.66624098 504.06261788 832.64264923 505.82470703 835.61914062 C509.19374078 841.30971781 512.565809 846.99849702 515.9375 852.6875 C519.90282388 859.3786219 523.86793128 866.06987167 527.83203125 872.76171875 C535.0273942 884.90749141 542.22893391 897.04956012 549.4375 909.1875 C555.98407809 920.21077012 562.52943282 931.23475609 569.05908203 942.26806641 C572.12498753 947.4477473 575.1956982 952.62439808 578.28297424 957.79136658 C579.77002138 960.28076062 581.25444508 962.77171415 582.73867798 965.26278687 C583.44633396 966.44881001 584.15526812 967.63407158 584.86557007 968.81851196 C585.8485274 970.45779182 586.82670752 972.09993334 587.8046875 973.7421875 C588.36269043 974.67530762 588.92069336 975.60842773 589.49560547 976.56982422 C590.9375 979.1875 590.9375 979.1875 592.9375 984.1875 C511.4275 984.1875 429.9175 984.1875 345.9375 984.1875 C332.39731173 959.36382151 332.39731173 959.36382151 327.4375 949.6875 C322.87181196 940.84255525 318.18206464 932.07771207 313.38671875 923.35546875 C309.29254666 915.88899176 305.3526884 908.34833481 301.43505859 900.78808594 C298.0379159 894.2501053 294.54958782 887.7688369 291 881.3125 C286.13500329 872.46126254 281.44920811 863.52685981 276.81958008 854.55053711 C272.56162662 846.31952272 268.15206648 838.17923061 263.63085938 830.08984375 C263.15970703 829.2390625 262.68855469 828.38828125 262.203125 827.51171875 C261.78836914 826.77010498 261.37361328 826.02849121 260.94628906 825.2644043 C259.96352464 823.24107978 259.3926106 821.3839977 258.9375 819.1875 C257.88925049 819.47882812 256.84100098 819.77015625 255.76098633 820.0703125 C213.31895304 831.82709747 170.68686266 840.98831899 127.0625 847.0625 C126.27543671 847.17218109 125.48837341 847.28186218 124.67745972 847.39486694 C111.71895221 849.1875 111.71895221 849.1875 106.9375 849.1875 C106.9375 893.7375 106.9375 938.2875 106.9375 984.1875 C34.6675 984.1875 -37.6025 984.1875 -112.0625 984.1875 C-112.0625 939.3075 -112.0625 894.4275 -112.0625 848.1875 C-116.0225 847.8575 -119.9825 847.5275 -124.0625 847.1875 C-126.83884128 846.84116543 -129.59515594 846.47753931 -132.359375 846.05859375 C-133.09862717 845.94888748 -133.83787933 845.83918121 -134.59953308 845.72615051 C-137.00490418 845.36564089 -139.40885329 844.99682697 -141.8125 844.625 C-143.07587692 844.43000916 -143.07587692 844.43000916 -144.36477661 844.2310791 C-190.11292779 837.1169466 -235.0298559 826.49010783 -279.0625 812.1875 C-279.71265076 811.97651672 -280.36280151 811.76553345 -281.03265381 811.54815674 C-309.77845571 802.18835786 -337.58185891 790.75304799 -365.0625 778.1875 C-366.37782715 777.59074463 -366.37782715 777.59074463 -367.71972656 776.98193359 C-379.87686564 771.45007563 -391.60553864 765.24965247 -403.26513672 758.73925781 C-405.96897607 757.23937974 -408.68709062 755.76930245 -411.41015625 754.3046875 C-441.82833593 737.76055318 -470.52330646 717.37909491 -497.0625 695.1875 C-497.65337402 694.69572266 -498.24424805 694.20394531 -498.85302734 693.69726562 C-515.46965368 679.82615598 -532.18532615 664.97132257 -546.1796875 648.41015625 C-547.74568307 646.56150172 -549.33621928 644.74446541 -550.9453125 642.93359375 C-562.31232963 630.08638027 -572.56123952 616.47234083 -582.0625 602.1875 C-582.49997559 601.53571777 -582.93745117 600.88393555 -583.38818359 600.21240234 C-628.58308952 532.42789798 -647.57043161 449.80558959 -631.76220703 369.48779297 C-616.64133449 298.1675016 -577.74098825 237.6731925 -526.72851562 186.66821289 C-525.05828905 184.9957835 -523.39627621 183.31546331 -521.734375 181.63476562 C-515.15124914 175.01769956 -508.370885 169.00360087 -501.0625 163.1875 C-499.91017066 162.20438001 -498.76440248 161.21345241 -497.62890625 160.2109375 C-483.05192735 147.34231 -467.24613841 135.94308578 -451.0625 125.1875 C-450.39718262 124.74486816 -449.73186523 124.30223633 -449.04638672 123.84619141 C-401.00451383 92.02803268 -349.26479714 67.42691578 -295.0625 48.1875 C-294.3857019 47.94622375 -293.70890381 47.70494751 -293.01159668 47.45635986 C-216.9574119 20.38147761 -136.49609155 6.21466747 -56.0625 1.1875 C-55.32073517 1.1391098 -54.57897034 1.0907196 -53.81472778 1.04086304 C-35.89427114 -0.09606996 -17.94818314 -0.01338211 0 0 Z M20.9375 171.1875 C20.12132202 171.27471313 19.30514404 171.36192627 18.4642334 171.45178223 C-29.95118532 176.63474322 -77.55020571 185.64856582 -124.0625 200.1875 C-125.90666504 200.76105225 -125.90666504 200.76105225 -127.78808594 201.34619141 C-157.99945076 210.83611424 -186.80448888 222.95392998 -215.0625 237.1875 C-216.03783691 237.67460449 -217.01317383 238.16170898 -218.01806641 238.66357422 C-251.6761314 255.53690142 -285.15153609 277.38442714 -311.46875 304.59375 C-313.0625 306.1875 -313.0625 306.1875 -315.625 308.1875 C-318.43610827 310.49405037 -320.64349583 313.04832447 -322.99609375 315.8125 C-325.3424351 318.50924015 -327.79584484 321.08856734 -330.25 323.6875 C-369.34875139 365.94383821 -387.21187859 419.28421662 -385.0625 476.1875 C-384.63106598 482.98206476 -383.57068137 489.55425662 -382.0625 496.1875 C-381.78043701 497.45980469 -381.78043701 497.45980469 -381.49267578 498.7578125 C-370.24248997 547.87556883 -339.04840571 591.72797188 -301.0625 624.1875 C-300.12664062 625.00089844 -299.19078125 625.81429688 -298.2265625 626.65234375 C-249.44223583 668.80526763 -189.89241762 697.14641926 -128.9375 716.875 C-128.25798279 717.09568146 -127.57846558 717.31636292 -126.87835693 717.54373169 C-119.61113362 720.15443332 -119.61113362 720.15443332 -112.0625 721.1875 C-112.0625 570.7075 -112.0625 420.2275 -112.0625 265.1875 C-2.29625 265.31125 -2.29625 265.31125 109.6875 265.4375 C144.30994629 265.46118652 144.30994629 265.46118652 179.63183594 265.48535156 C207.87939453 265.53076172 207.87939453 265.53076172 221.11529541 265.55706787 C230.33325062 265.57403063 239.55113495 265.58026327 248.769104 265.57904053 C259.42012137 265.57766537 270.07101706 265.59026688 280.72199585 265.61953889 C286.16122932 265.63406186 291.60027435 265.64270509 297.0395236 265.63332415 C362.19401302 265.53375244 426.74728803 279.36827557 474.9375 326.1875 C475.48857422 326.71593506 476.03964844 327.24437012 476.60742188 327.78881836 C487.98288965 338.87739107 496.77129966 352.07669753 503.9375 366.1875 C504.41243896 367.11079102 504.41243896 367.11079102 504.89697266 368.05273438 C529.3747134 416.1645966 530.12049568 477.76523909 514.13574219 528.62182617 C498.59049623 575.77198402 466.1892877 612.65006915 421.9375 635.1875 C421.14714355 635.5995166 420.35678711 636.0115332 419.54248047 636.43603516 C395.63909986 648.82315436 368.95099094 657.60259272 342.140625 660.73046875 C341.41359375 660.88128906 340.6865625 661.03210938 339.9375 661.1875 C339.6075 661.8475 339.2775 662.5075 338.9375 663.1875 C339.89301758 663.50388428 340.84853516 663.82026855 341.83300781 664.14624023 C382.2285466 677.56383179 382.2285466 677.56383179 398.2578125 686.58984375 C399.28793457 687.16557129 399.28793457 687.16557129 400.33886719 687.75292969 C401.60478217 688.47264088 402.85949401 689.21264693 404.09863281 689.97753906 C406.86797682 691.58424302 408.49385586 692.25735035 411.69140625 691.75390625 C416.39633313 689.48353841 420.95980777 687.02079127 425.5 684.4375 C426.50853027 683.86475342 427.51706055 683.29200684 428.55615234 682.7019043 C443.74442106 673.96242508 458.32624911 664.23195457 471.9375 653.1875 C472.91847656 652.41019531 473.89945313 651.63289063 474.91015625 650.83203125 C489.61527347 638.84113289 503.61810318 625.22028857 514.75488281 609.81884766 C515.95880517 608.15811083 517.1916715 606.52215234 518.4296875 604.88671875 C525.44622165 595.49269257 531.35468232 585.48754852 536.9375 575.1875 C537.30085449 574.51976562 537.66420898 573.85203125 538.03857422 573.1640625 C549.07673715 552.45099467 556.09875674 528.25175041 559.9375 505.1875 C560.09831055 504.23681641 560.25912109 503.28613281 560.42480469 502.30664062 C565.03887121 473.59477924 564.72787902 442.8441467 559.9375 414.1875 C559.77652832 413.20394531 559.61555664 412.22039062 559.44970703 411.20703125 C553.19466454 374.4338708 538.42558315 338.34363978 514.9375 309.1875 C513.86435547 307.82818359 513.86435547 307.82818359 512.76953125 306.44140625 C500.94276625 291.68411541 487.86217528 277.82874672 472.9375 266.1875 C472.32132813 265.70023437 471.70515625 265.21296875 471.0703125 264.7109375 C395.81815124 205.2705144 297.65321822 181.79097392 188.9375 171.1875 C187.66039154 171.0747171 187.66039154 171.0747171 186.35748291 170.95965576 C131.90456862 166.18027675 75.33687519 165.22635217 20.9375 171.1875 Z M108.9375 422.1875 C108.9375 462.1175 108.9375 502.0475 108.9375 543.1875 C132.38768024 543.27500154 132.38768024 543.27500154 155.83789062 543.33398438 C165.41028707 543.35173778 174.98260389 543.37253019 184.55493164 543.41381836 C191.52854062 543.44388297 198.50208459 543.46311314 205.47575659 543.46976548 C209.16235153 543.47364911 212.8487606 543.48266385 216.53529549 543.50469017 C220.66822395 543.52917932 224.80083694 543.52945917 228.93383789 543.52807617 C230.13290771 543.538862 231.33197754 543.54964783 232.56738281 543.5607605 C251.50984941 543.49271985 270.66839962 538.23107097 284.6875 524.9375 C297.98372129 510.89087468 300.3721534 494.26595507 300.1484375 475.69140625 C299.74417748 460.98083331 294.6445805 448.11339808 284.41796875 437.44140625 C270.89724247 425.15564394 254.59763356 421.86210857 236.88061523 421.96044922 C235.48029081 421.96101434 234.0799658 421.9606948 232.67964172 421.95956421 C228.90338281 421.95899364 225.12725261 421.97069964 221.35102344 421.98471212 C217.39524166 421.99726917 213.43945647 421.99839389 209.48365784 422.00076294 C202.00407701 422.00696315 194.5245551 422.02335411 187.04500014 422.04346192 C176.92990737 422.07006103 166.81479833 422.08080536 156.69967937 422.09246635 C140.77890884 422.11123584 124.8582626 422.15109119 108.9375 422.1875 Z M106.9375 703.1875 C106.9375 718.6975 106.9375 734.2075 106.9375 750.1875 C128.65448696 750.41771541 150.0922436 750.31883687 171.75 748.8125 C172.66824554 748.74928558 173.58649109 748.68607117 174.53256226 748.62094116 C180.67179589 748.19124918 186.80534267 747.70810787 192.9375 747.1875 C193.86592712 747.10995483 194.79435425 747.03240967 195.75091553 746.95251465 C198.52644086 746.7161504 201.30036197 746.46607454 204.07421875 746.2109375 C204.92135941 746.13863922 205.76850006 746.06634094 206.64131165 745.99185181 C210.44353549 745.62547432 212.70623314 745.3416779 215.9375 743.1875 C198.29067268 717.64021977 198.29067268 717.64021977 171.9375 703.1875 C169.79864397 703.10027181 167.65723153 703.0698261 165.51660156 703.07397461 C164.21555481 703.07405014 162.91450806 703.07412567 161.57403564 703.07420349 C160.15873171 703.07930976 158.74342816 703.08452575 157.328125 703.08984375 C155.87652637 703.09170965 154.42492712 703.09313274 152.97332764 703.09413147 C149.15930431 703.09794312 145.34531927 703.10776185 141.53131104 703.11883545 C136.95160208 703.13088072 132.3718803 703.13545825 127.79216003 703.14128876 C120.84058009 703.15097434 113.8890841 703.17014033 106.9375 703.1875 Z " fill="#1F65B7" transform="translate(638.0625,4.8125)"/>
<path d="M0 0 C1.20179838 0.00040031 1.20179838 0.00040031 2.42787552 0.00080872 C48.09235649 0.01990676 48.09235649 0.01990676 70.82086182 2.00390625 C73.10450032 2.20198534 75.38883097 2.39036188 77.67333984 2.578125 C159.17051768 9.36068272 240.12229606 25.9253889 367.9375 77.1875 C369.68872779 77.98584007 371.44002328 78.78403167 373.19140625 79.58203125 C385.42236172 85.20912014 397.19059858 91.61954281 408.9375 98.1875 C409.80101074 98.66558105 410.66452148 99.14366211 411.55419922 99.63623047 C432.88682387 111.45702857 453.43608329 124.5340058 472.9375 139.1875 C473.51854492 139.62223633 474.09958984 140.05697266 474.69824219 140.50488281 C486.67724491 149.49789656 498.51351433 158.83778187 509.53125 168.9921875 C510.83956452 170.18581211 512.15533843 171.37221343 513.50610352 172.51757812 C519.99340342 178.04249058 525.98852774 184.05243267 532.00952148 190.07421875 C533.86227468 191.92478967 535.72288706 193.76720076 537.58398438 195.609375 C544.50459304 202.49769511 550.8803606 209.5200106 556.9375 217.1875 C557.87182662 218.28971225 558.81320494 219.38604036 559.765625 220.47265625 C613.98239445 282.64704831 643.38940845 364.65663167 638.71923828 447.03759766 C635.83049881 485.84012095 625.62591645 523.10112201 608.9375 558.1875 C608.44080811 559.2386499 608.44080811 559.2386499 607.93408203 560.31103516 C593.9506523 589.70535495 575.51444776 616.85673758 553.9375 641.1875 C552.74955822 642.56211834 551.5619873 643.93705738 550.375 645.3125 C549.23278816 646.60737023 548.08663697 647.89877155 546.9375 649.1875 C546.18855469 650.02925781 545.43960937 650.87101563 544.66796875 651.73828125 C539.02467154 657.99074998 533.19502647 664.03358854 527.25 670 C526.54955566 670.70503662 525.84911133 671.41007324 525.12744141 672.13647461 C520.55946419 676.69102607 515.82569355 680.98117741 510.9375 685.1875 C509.78102985 686.20921708 508.62603419 687.23260602 507.47265625 688.2578125 C498.28991831 696.36169699 488.75104004 703.8659518 478.9375 711.1875 C478.15262207 711.77740723 477.36774414 712.36731445 476.55908203 712.97509766 C466.59561651 720.46020868 456.54738409 727.64502661 445.9375 734.1875 C442.8967718 731.3931421 441.06279663 728.82136311 439.25 725.125 C432.34072401 712.08764756 421.5524104 700.79223322 408.9375 693.1875 C411.64800024 689.90689454 415.23692306 688.45633212 419 686.6875 C444.58220985 674.23751073 468.44820986 656.87729879 488.9375 637.1875 C489.53208008 636.62015137 490.12666016 636.05280273 490.73925781 635.46826172 C499.63997208 626.93248133 507.6179394 618.10724467 514.9375 608.1875 C515.77462299 607.08064098 516.61186192 605.97386963 517.44921875 604.8671875 C524.4524481 595.47471784 530.35892906 585.47971347 535.9375 575.1875 C536.30085449 574.51976562 536.66420898 573.85203125 537.03857422 573.1640625 C548.07673715 552.45099467 555.09875674 528.25175041 558.9375 505.1875 C559.09831055 504.23681641 559.25912109 503.28613281 559.42480469 502.30664062 C564.03887121 473.59477924 563.72787902 442.8441467 558.9375 414.1875 C558.69604248 412.71216797 558.69604248 412.71216797 558.44970703 411.20703125 C552.19466454 374.4338708 537.42558315 338.34363978 513.9375 309.1875 C513.22207031 308.28128906 512.50664063 307.37507813 511.76953125 306.44140625 C500.21971034 292.02968281 487.49921145 278.57556039 472.9375 267.1875 C472.31987793 266.69878418 471.70225586 266.21006836 471.06591797 265.70654297 C395.81355053 206.26980323 297.65131926 182.79078636 188.9375 172.1875 C188.08609436 172.1123114 187.23468872 172.0371228 186.35748291 171.95965576 C131.90456862 167.18027675 75.33687519 166.22635217 20.9375 172.1875 C19.71323303 172.3183197 19.71323303 172.3183197 18.4642334 172.45178223 C-29.95118532 177.63474322 -77.55020571 186.64856582 -124.0625 201.1875 C-125.29194336 201.56986816 -126.52138672 201.95223633 -127.78808594 202.34619141 C-157.99945076 211.83611424 -186.80448888 223.95392998 -215.0625 238.1875 C-216.03783691 238.67460449 -217.01317383 239.16170898 -218.01806641 239.66357422 C-252.41165863 256.905633 -286.27147422 279.31764097 -313.0625 307.1875 C-315.5693455 309.71075692 -318.09101425 312.21523659 -320.640625 314.6953125 C-326.9282949 320.8542874 -332.67814102 327.20608539 -338.0625 334.1875 C-338.69623535 335.00661865 -338.69623535 335.00661865 -339.34277344 335.84228516 C-372.30878505 378.7414449 -389.97227042 430.3197494 -383.29370117 484.59570312 C-382.70022557 488.49742893 -381.93736124 492.33970844 -381.0625 496.1875 C-380.78043701 497.45980469 -380.78043701 497.45980469 -380.49267578 498.7578125 C-371.91495545 536.20771639 -352.1919197 568.55503577 -327.0625 597.1875 C-326.60004883 597.71456543 -326.13759766 598.24163086 -325.66113281 598.78466797 C-313.85983531 612.12580074 -300.91326595 624.20348378 -286.70214844 634.9375 C-285.13135988 636.13500408 -283.58454211 637.36375589 -282.0390625 638.59375 C-235.27943318 675.6167984 -179.2655879 699.94153475 -122.76586914 717.74804688 C-122.05827957 717.97172943 -121.35069 718.19541199 -120.62165833 718.4258728 C-118.6944928 719.03361526 -116.76575138 719.63635401 -114.83691406 720.23876953 C-112.0625 721.1875 -112.0625 721.1875 -111.0625 722.1875 C-110.96644136 723.81973456 -110.94062179 725.4561439 -110.94224548 727.09120178 C-110.94087082 728.15275986 -110.93949615 729.21431793 -110.93807983 730.30804443 C-110.94167511 731.48264221 -110.94527039 732.65723999 -110.94897461 733.86743164 C-110.94882858 735.09652756 -110.94868256 736.32562347 -110.9485321 737.59196472 C-110.94911108 740.97198672 -110.95414036 744.35194829 -110.96110606 747.73195958 C-110.96734012 751.26071194 -110.96794344 754.78946503 -110.96913147 758.31822205 C-110.97224463 765.00473119 -110.98045782 771.69122406 -110.99048096 778.37772602 C-111.00164256 785.98824303 -111.00715267 793.5987608 -111.01217639 801.20928395 C-111.02264044 816.86869874 -111.04023959 832.52809727 -111.0625 848.1875 C-113.13715173 848.03326343 -115.21168966 847.87749557 -117.28617859 847.72108459 C-119.0190841 847.59121706 -119.0190841 847.59121706 -120.7869978 847.45872593 C-124.70493772 847.13430334 -128.57225755 846.65198291 -132.45703125 846.05859375 C-133.19486847 845.94888748 -133.93270569 845.83918121 -134.69290161 845.72615051 C-137.08810289 845.36632615 -139.48168878 844.99717979 -141.875 844.625 C-143.13463058 844.43000916 -143.13463058 844.43000916 -144.41970825 844.2310791 C-190.1473537 837.10346786 -235.04690772 826.48456908 -279.0625 812.1875 C-279.71265076 811.97651672 -280.36280151 811.76553345 -281.03265381 811.54815674 C-309.77845571 802.18835786 -337.58185891 790.75304799 -365.0625 778.1875 C-366.37782715 777.59074463 -366.37782715 777.59074463 -367.71972656 776.98193359 C-379.87686564 771.45007563 -391.60553864 765.24965247 -403.26513672 758.73925781 C-405.96897607 757.23937974 -408.68709062 755.76930245 -411.41015625 754.3046875 C-441.82833593 737.76055318 -470.52330646 717.37909491 -497.0625 695.1875 C-497.65337402 694.69572266 -498.24424805 694.20394531 -498.85302734 693.69726562 C-515.46965368 679.82615598 -532.18532615 664.97132257 -546.1796875 648.41015625 C-547.74568307 646.56150172 -549.33621928 644.74446541 -550.9453125 642.93359375 C-562.31232963 630.08638027 -572.56123952 616.47234083 -582.0625 602.1875 C-582.49997559 601.53571777 -582.93745117 600.88393555 -583.38818359 600.21240234 C-628.58308952 532.42789798 -647.57043161 449.80558959 -631.76220703 369.48779297 C-616.64133449 298.1675016 -577.74098825 237.6731925 -526.72851562 186.66821289 C-525.05828905 184.9957835 -523.39627621 183.31546331 -521.734375 181.63476562 C-515.15124914 175.01769956 -508.370885 169.00360087 -501.0625 163.1875 C-499.91017066 162.20438001 -498.76440248 161.21345241 -497.62890625 160.2109375 C-483.05192735 147.34231 -467.24613841 135.94308578 -451.0625 125.1875 C-450.39718262 124.74486816 -449.73186523 124.30223633 -449.04638672 123.84619141 C-401.00451383 92.02803268 -349.26479714 67.42691578 -295.0625 48.1875 C-294.3857019 47.94622375 -293.70890381 47.70494751 -293.01159668 47.45635986 C-216.9574119 20.38147761 -136.49609155 6.21466747 -56.0625 1.1875 C-55.32073517 1.1391098 -54.57897034 1.0907196 -53.81472778 1.04086304 C-35.89427114 -0.09606996 -17.94818314 -0.01338211 0 0 Z " fill="#AEB0B4" transform="translate(638.0625,4.8125)"/>
<path d="M0 0 C1.46289062 1.47680664 1.46289062 1.47680664 2.65625 3.41015625 C3.11427002 4.13968506 3.57229004 4.86921387 4.04418945 5.62084961 C4.52460693 6.42659424 5.00502441 7.23233887 5.5 8.0625 C6.27766724 9.33202515 6.27766724 9.33202515 7.07104492 10.62719727 C12.80019436 20.10361763 18.02187544 29.85660594 23.20703125 39.63769531 C24.82105136 42.66442257 26.45157057 45.68114202 28.09187317 48.69364929 C29.4939614 51.26866357 30.89103839 53.84638031 32.28768921 56.42434692 C32.96761404 57.67706807 33.64942094 58.92876965 34.3331604 60.17941284 C35.2865682 61.92501038 36.23137163 63.67529912 37.17578125 65.42578125 C37.72145752 66.43036377 38.26713379 67.43494629 38.8293457 68.4699707 C40 71 40 71 40 74 C-5.13360892 88.09650556 -51.77860524 96.72076517 -98.58203125 102.96875 C-99.36337433 103.07455887 -100.14471741 103.18036774 -100.94973755 103.28938293 C-104.66523419 103.77331773 -108.25683908 104.04388343 -112 104 C-112.02312121 91.2396613 -112.04091395 78.47932755 -112.05181217 65.71897221 C-112.05704149 59.79449285 -112.06414001 53.87002778 -112.07543945 47.94555664 C-112.08626661 42.23327429 -112.09227647 36.52100572 -112.09487724 30.80871391 C-112.0967318 28.62411723 -112.100353 26.43952135 -112.10573006 24.2549305 C-112.11293821 21.20647651 -112.11399104 18.15808021 -112.11352539 15.10961914 C-112.11712067 14.19684204 -112.12071594 13.28406494 -112.12442017 12.34362793 C-112.11405216 6.11405216 -112.11405216 6.11405216 -111 5 C-108.49779195 4.87523723 -106.01949879 4.81305645 -103.515625 4.7890625 C-101.88304702 4.76304803 -100.25047896 4.73640563 -98.61791992 4.70922852 C-97.74493256 4.69594513 -96.87194519 4.68266174 -95.97250366 4.66897583 C-79.34509766 4.40039805 -62.77824373 3.69367108 -46.1875 2.5625 C-45.26916382 2.50096741 -44.35082764 2.43943481 -43.40466309 2.3760376 C-35.39487992 1.83418559 -27.39269779 1.26953891 -19.40869141 0.42138672 C-18.49944412 0.3249437 -17.59019684 0.22850067 -16.65339661 0.12913513 C-14.92542013 -0.05843225 -13.19819363 -0.25309787 -11.4719696 -0.4561615 C-3.62604909 -1.31932822 -3.62604909 -1.31932822 0 0 Z " fill="#93939A" transform="translate(856,750)"/>
</svg>
