<?xml version="1.0" encoding="UTF-8"?>
<svg version="1.1" xmlns="http://www.w3.org/2000/svg" width="512" height="512">
<path d="M0 0 C1.03438686 -0.13139613 1.03438686 -0.13139613 2.08967042 -0.26544672 C4.38657275 -0.54957536 6.68536605 -0.80724555 8.98583984 -1.06074524 C9.79673427 -1.1537996 10.6076287 -1.24685395 11.44309568 -1.34272814 C84.9514618 -9.72546154 174.69356943 -18.59797952 236.61791992 29.86405945 C241.97009472 34.20362765 247.05965754 38.80634743 252.07177734 43.53178406 C252.69490043 44.11533708 253.31802352 44.6988901 253.96002913 45.30012655 C299.80162817 88.61083075 305.9503721 143.54953175 307.69681132 203.32111549 C308.9083719 248.60788404 307.25722529 294.00265446 304.59130859 339.21147156 C304.54907139 339.92778797 304.50683419 340.64410438 304.46331707 341.38212734 C303.93404348 350.28386024 303.34463452 359.17904988 302.67285109 368.07126951 C302.48769398 370.53215573 302.30979238 372.99360048 302.13976526 375.45557833 C301.90226086 378.81402127 301.62916812 382.16753635 301.34407043 385.52223206 C301.28035281 386.48873267 301.21663519 387.45523328 301.15098673 388.45102179 C300.50940284 395.2643388 298.53992937 400.23660566 293.82177734 405.28178406 C287.90768875 410.10325812 281.13622387 409.84860386 273.828125 409.78971863 C272.03774276 409.79907857 272.03774276 409.79907857 270.21119118 409.80862761 C266.91512671 409.82178109 263.61997963 409.81710354 260.32397175 409.80468273 C256.7628858 409.7956091 253.20187832 409.80961338 249.64080811 409.82060242 C242.67145399 409.83836766 235.7022724 409.83455661 228.73291159 409.82295185 C223.06763388 409.81390993 217.40240444 409.81269681 211.73712158 409.81704712 C210.52660391 409.81796652 210.52660391 409.81796652 209.29163134 409.81890449 C207.65208545 409.82018342 206.01253957 409.82148027 204.37299371 409.82279485 C189.0071863 409.83419481 173.64147443 409.82109615 158.27568269 409.79959339 C145.09764037 409.78172292 131.919739 409.7848272 118.74169922 409.80326843 C103.43002439 409.8246855 88.11843324 409.83309622 72.80674553 409.82081938 C71.17330807 409.81954521 69.53987059 409.81828773 67.90643311 409.81704712 C67.10279851 409.81643002 66.29916391 409.81581291 65.47117674 409.81517711 C59.81419908 409.81172672 54.1572746 409.81754585 48.50030518 409.82696533 C41.60417041 409.83819599 34.70821772 409.83512294 27.81210375 409.81384236 C24.2950924 409.80334616 20.77838437 409.79918532 17.26137543 409.81243896 C13.4458895 409.8265997 9.63089779 409.80966552 5.81542969 409.78971863 C4.15433387 409.80310296 4.15433387 409.80310296 2.45968056 409.81675768 C-4.81402277 409.74296281 -10.61530212 408.79931708 -16.01806641 403.46537781 C-16.38029297 402.88916687 -16.74251953 402.31295593 -17.11572266 401.71928406 C-17.49599609 401.140495 -17.87626953 400.56170593 -18.26806641 399.96537781 C-20.27539716 396.25224666 -20.30769547 393.12973339 -20.31803036 388.98756218 C-20.32098178 388.34352664 -20.3239332 387.6994911 -20.32697406 387.03593934 C-20.33568329 384.86306361 -20.33724735 382.69024101 -20.33885193 380.51734924 C-20.34358167 378.94962408 -20.34873241 377.38190015 -20.35426956 375.81417763 C-20.36819383 371.49433437 -20.37576438 367.17449954 -20.38224256 362.85463953 C-20.38860867 359.15228189 -20.39867945 355.44993814 -20.40880322 351.74758916 C-20.44214491 339.54844595 -20.46365171 327.34929429 -20.48200306 315.15012044 C-20.48679722 311.97418058 -20.49178064 308.79824107 -20.49680829 305.62230158 C-20.52777814 285.90587629 -20.55446736 266.18944809 -20.57122707 246.47300529 C-20.57517666 241.90503306 -20.57917964 237.33706087 -20.58325195 232.76908875 C-20.58426031 231.63372182 -20.58526868 230.49835489 -20.58630759 229.3285829 C-20.6033163 210.93428596 -20.64442708 192.54012351 -20.69527494 174.14589225 C-20.74703484 155.26663703 -20.77616718 136.38745101 -20.78342396 117.50812542 C-20.78808821 106.90575526 -20.80286055 96.30360535 -20.84316826 85.70130539 C-20.87745322 76.67215952 -20.89141376 67.64327364 -20.87874412 58.61406641 C-20.87291369 54.00726355 -20.87680807 49.40101064 -20.90691376 44.79429054 C-20.93426459 40.57466835 -20.9337869 36.3559871 -20.91140331 32.13634409 C-20.90817926 30.6120437 -20.91505548 29.08768045 -20.93320053 27.56348465 C-21.01960722 19.83509894 -20.94493147 13.28978719 -15.92536122 7.00046057 C-11.28043886 2.43120709 -6.4609309 0.79549797 0 0 Z " fill="#4AAD4E" transform="translate(116.17822265625,54.71821594238281)"/>
<path d="M0 0 C60.72 0 121.44 0 184 0 C184 47.52 184 95.04 184 144 C123.28 144 62.56 144 0 144 C0 96.48 0 48.96 0 0 Z " fill="#FFFFFF" transform="translate(160,248)"/>
<path d="M0 0 C6.43236611 5.30312126 12.28522751 11.14373696 18.16772461 17.03833008 C19.28183709 18.15108556 20.39616176 19.26362863 21.51068115 20.37597656 C24.51870295 23.37946269 27.52358124 26.38607506 30.52774501 29.3934195 C33.67459381 32.54280815 36.8238908 35.68974718 39.97279358 38.83708191 C45.25262309 44.11509608 50.53034893 49.39520689 55.80688477 54.67651367 C61.91437661 60.78946384 68.02548543 66.89878039 74.13845247 73.00625497 C79.38879616 78.25206958 84.63719986 83.49981916 89.88396841 88.74920958 C93.0172159 91.88401881 96.1511417 95.01814188 99.28681755 98.15052223 C102.22836641 101.08919479 105.16748192 104.03027906 108.10469055 106.97328949 C109.18584772 108.05577484 110.26786771 109.13739917 111.35078621 110.21812248 C112.82190005 111.68652751 114.28993673 113.1579391 115.75718689 114.63020325 C116.99350058 115.86708248 116.99350058 115.86708248 118.25479031 117.12894917 C120 119 120 119 120 120 C106.4479249 120.09276192 92.89592558 120.16379678 79.34359741 120.20724869 C73.05040252 120.22810553 66.75742517 120.2563891 60.46435547 120.30175781 C54.38892484 120.34528241 48.3137032 120.36915142 42.23812866 120.37950897 C39.9225231 120.38688838 37.60692872 120.40129865 35.29141235 120.42292023 C32.04298359 120.45204125 28.79541371 120.45595225 25.546875 120.45410156 C24.59380966 120.46848267 23.64074432 120.48286377 22.65879822 120.49768066 C15.98546443 120.45665769 10.53736702 119.19383099 5.47528076 114.62335587 C-0.19028106 108.33649462 -0.28751913 101.76853023 -0.22705078 93.77197266 C-0.22734283 92.75672516 -0.22763489 91.74147766 -0.22793579 90.69546509 C-0.2265464 87.35157622 -0.21100339 84.00791228 -0.1953125 80.6640625 C-0.19158099 78.34093345 -0.18873467 76.01780282 -0.18673706 73.69467163 C-0.17911152 67.58892449 -0.1594722 61.48327293 -0.1373291 55.37756348 C-0.11684749 49.14364922 -0.10773038 42.90971948 -0.09765625 36.67578125 C-0.07622537 24.4504789 -0.04210236 12.22524741 0 0 Z " fill="#94CC96" transform="translate(296,56)"/>
<path d="M0 0 C0.391875 0.53625 0.78375 1.0725 1.1875 1.625 C1.785625 2.40875 2.38375 3.1925 3 4 C3.763125 5.010625 4.52625 6.02125 5.3125 7.0625 C8.66582051 10.7277573 11.40129587 12.70940086 16.45621085 13.27466488 C19.55895867 13.39398324 22.64809933 13.40927003 25.75314331 13.39440918 C26.94502262 13.40050028 28.13690193 13.40659139 29.3648988 13.41286707 C32.66532637 13.42662261 35.96525568 13.42695247 39.26567435 13.4214921 C42.82815711 13.4188197 46.39057642 13.43335762 49.95303345 13.44558716 C56.9293091 13.4666345 63.90550163 13.47118241 70.88180529 13.46939927 C76.55284755 13.4680913 82.22386389 13.4718976 87.89490128 13.47932434 C89.52886458 13.48142355 91.16282789 13.48352115 92.7967912 13.48561716 C93.61007894 13.48666069 94.42336668 13.48770422 95.26129951 13.48877937 C110.64042765 13.50767892 126.01950809 13.50663241 141.39864303 13.49981004 C155.46409354 13.49423474 169.52936189 13.51505991 183.59476982 13.54817051 C198.04109263 13.58191355 212.48732819 13.59707508 226.93369114 13.59245348 C235.04264199 13.59020941 243.15142448 13.59544273 251.26034164 13.62034607 C258.16386014 13.64136716 265.06711797 13.64494331 271.9706472 13.62604648 C275.4917679 13.61689343 279.01240268 13.61573148 282.53348541 13.63640213 C286.35352102 13.65857945 290.17283151 13.64188313 293.9928894 13.62145996 C295.10165086 13.63397781 296.21041231 13.64649566 297.35277259 13.65939283 C304.15127717 13.58142486 308.76407793 12.4820309 314 8 C315.8623382 5.88638974 315.8623382 5.88638974 316.9375 3.6875 C317.61174099 2.4510106 318.29507107 1.21925475 319 0 C319.33 0 319.66 0 320 0 C320.63896885 6.70917288 319.77840901 10.33792626 316.09375 15.95703125 C309.5585403 22.33373773 302.65929231 22.57765594 294.00634766 22.50793457 C292.21596541 22.51729451 292.21596541 22.51729451 290.38941383 22.52684355 C287.09334936 22.53999703 283.79820228 22.53531948 280.5021944 22.52289867 C276.94110845 22.51382505 273.38010098 22.52782932 269.81903076 22.53881836 C262.84967664 22.5565836 255.88049506 22.55277255 248.91113424 22.5411678 C243.24585653 22.53212587 237.5806271 22.53091275 231.91534424 22.53526306 C230.70482657 22.53618246 230.70482657 22.53618246 229.469854 22.53712043 C227.83030811 22.53839936 226.19076223 22.53969622 224.55121636 22.5410108 C209.18540896 22.55241075 193.81969708 22.53931209 178.45390534 22.51780933 C165.27586302 22.49993887 152.09796165 22.50304314 138.91992188 22.52148438 C123.60824705 22.54290144 108.2966559 22.55131217 92.98496819 22.53903532 C91.35153072 22.53776115 89.71809325 22.53650367 88.08465576 22.53526306 C87.28102116 22.53464596 86.47738656 22.53402886 85.6493994 22.53339306 C79.99242174 22.52994266 74.33549726 22.5357618 68.67852783 22.54518127 C61.78239307 22.55641194 54.88644037 22.55333888 47.9903264 22.5320583 C44.47331506 22.5215621 40.95660703 22.51740127 37.43959808 22.53065491 C33.62411216 22.54481564 29.80912045 22.52788147 25.99365234 22.50793457 C24.88625513 22.51685746 23.77885792 22.52578034 22.63790321 22.53497362 C15.36419989 22.46117875 9.56292054 21.51753302 4.16015625 16.18359375 C3.79792969 15.60738281 3.43570313 15.03117187 3.0625 14.4375 C2.68222656 13.85871094 2.30195312 13.27992188 1.91015625 12.68359375 C-0.40511827 8.40083273 -0.07757524 4.73208982 0 0 Z " fill="#000000" transform="translate(96,442)"/>
<path d="M0 0 C0.76960527 -0.0034177 1.53921053 -0.0068354 2.33213717 -0.01035666 C4.89503408 -0.01691292 7.45686918 0.00500213 10.01966858 0.0269165 C11.86304194 0.02804547 13.70641711 0.02741015 15.54978943 0.02514648 C20.54317563 0.02400034 25.53617633 0.04749359 30.52947307 0.07544231 C35.75181666 0.10047255 40.9741694 0.10279925 46.19656372 0.10754395 C56.08101217 0.11996893 65.96528334 0.15278417 75.84965378 0.1929419 C87.10471599 0.23767439 98.35978673 0.25965039 109.61491573 0.27972364 C132.76303378 0.32151715 155.91099456 0.39186002 179.05897522 0.48101807 C179.05897522 3.12101807 179.05897522 5.76101807 179.05897522 8.48101807 C178.11290909 8.48248463 177.16684296 8.48395119 176.19210815 8.48546219 C153.16480292 8.52206854 130.13764301 8.58153308 107.11045837 8.66492081 C95.97464254 8.70471827 84.83889745 8.73710721 73.70301819 8.75201416 C63.99619101 8.76502696 54.28951943 8.79198226 44.58277988 8.83563113 C39.4438278 8.85825416 34.3050677 8.87392823 29.1660614 8.87290192 C24.32656404 8.87215581 19.48749122 8.89008693 14.64810371 8.9221859 C12.87444559 8.93068691 11.10073985 8.93243345 9.32707024 8.92682076 C6.89899619 8.92016217 4.47226564 8.93814428 2.04432678 8.96203613 C1.34780408 8.95427572 0.65128138 8.9465153 -0.06634808 8.93851972 C-6.09303564 9.04299516 -11.40216329 11.07152531 -15.78086853 15.22711182 C-17.97915173 18.61450194 -19.5656246 21.3516161 -19.94102478 25.48101807 C-20.27102478 25.48101807 -20.60102478 25.48101807 -20.94102478 25.48101807 C-21.63114209 17.92806756 -21.33819256 12.71598985 -16.93711853 6.41851807 C-11.80461128 1.4366715 -7.03146053 -0.1158429 0 0 Z " fill="#5CB55F" transform="translate(116.94102478027344,55.51898193359375)"/>
<path d="M0 0 C60.72 0 121.44 0 184 0 C184 2.64 184 5.28 184 8 C123.28 8 62.56 8 0 8 C0 5.36 0 2.72 0 0 Z " fill="#3C8B3F" transform="translate(160,392)"/>
<path d="M0 0 C2 1 2 1 3.75 4.3125 C6.33576504 9.02885796 9.92952087 11.30984029 15 13 C16.44650771 13.09984248 17.89707097 13.14609259 19.3469696 13.15821838 C20.23457977 13.1680072 21.12218994 13.17779602 22.03669739 13.18788147 C23.00773911 13.19363693 23.97878082 13.1993924 24.97924805 13.20532227 C26.51609253 13.22017166 26.51609253 13.22017166 28.08398438 13.23532104 C31.47653885 13.26695337 34.86910734 13.29170041 38.26171875 13.31640625 C40.61156075 13.33697427 42.96139903 13.3579707 45.31123352 13.37937927 C51.50079342 13.43461557 57.69038679 13.48401802 63.88000488 13.53222656 C70.19412216 13.58243018 76.50819073 13.6381222 82.82226562 13.69335938 C95.21480216 13.80096002 107.60738095 13.9024008 120 14 C120 16.64 120 19.28 120 22 C106.4479249 22.09276192 92.89592558 22.16379678 79.34359741 22.20724869 C73.05040252 22.22810553 66.75742517 22.2563891 60.46435547 22.30175781 C54.38892484 22.34528241 48.3137032 22.36915142 42.23812866 22.37950897 C39.9225231 22.38688838 37.60692872 22.40129865 35.29141235 22.42292023 C32.04298359 22.45204125 28.79541371 22.45595225 25.546875 22.45410156 C24.59380966 22.46848267 23.64074432 22.48286377 22.65879822 22.49768066 C15.62236718 22.45442562 10.30760106 20.87453755 4.94140625 16.2109375 C0.99975739 10.96284979 0.0267656 6.53080748 0 0 Z " fill="#3C8B3F" transform="translate(296,162)"/>
<path d="M0 0 C18.48 0 36.96 0 56 0 C56 5.28 56 10.56 56 16 C37.52 16 19.04 16 0 16 C0 10.72 0 5.44 0 0 Z " fill="#4BAE4F" transform="translate(264,352)"/>
<path d="M0 0 C18.48 0 36.96 0 56 0 C56 5.28 56 10.56 56 16 C37.52 16 19.04 16 0 16 C0 10.72 0 5.44 0 0 Z " fill="#4BAE4F" transform="translate(184,352)"/>
<path d="M0 0 C18.48 0 36.96 0 56 0 C56 5.28 56 10.56 56 16 C37.52 16 19.04 16 0 16 C0 10.72 0 5.44 0 0 Z " fill="#4BAE4F" transform="translate(264,312)"/>
<path d="M0 0 C18.48 0 36.96 0 56 0 C56 5.28 56 10.56 56 16 C37.52 16 19.04 16 0 16 C0 10.72 0 5.44 0 0 Z " fill="#4BAE4F" transform="translate(184,312)"/>
<path d="M0 0 C18.48 0 36.96 0 56 0 C56 5.28 56 10.56 56 16 C37.52 16 19.04 16 0 16 C0 10.72 0 5.44 0 0 Z " fill="#4BAE4F" transform="translate(264,272)"/>
<path d="M0 0 C18.48 0 36.96 0 56 0 C56 5.28 56 10.56 56 16 C37.52 16 19.04 16 0 16 C0 10.72 0 5.44 0 0 Z " fill="#4BAE4F" transform="translate(184,272)"/>
<path d="M0 0 C18.48 0 36.96 0 56 0 C56 2.64 56 5.28 56 8 C37.52 8 19.04 8 0 8 C0 5.36 0 2.72 0 0 Z " fill="#3C8B3F" transform="translate(264,352)"/>
<path d="M0 0 C18.48 0 36.96 0 56 0 C56 2.64 56 5.28 56 8 C37.52 8 19.04 8 0 8 C0 5.36 0 2.72 0 0 Z " fill="#3C8B3F" transform="translate(184,352)"/>
<path d="M0 0 C18.48 0 36.96 0 56 0 C56 2.64 56 5.28 56 8 C37.52 8 19.04 8 0 8 C0 5.36 0 2.72 0 0 Z " fill="#3C8B3F" transform="translate(264,312)"/>
<path d="M0 0 C18.48 0 36.96 0 56 0 C56 2.64 56 5.28 56 8 C37.52 8 19.04 8 0 8 C0 5.36 0 2.72 0 0 Z " fill="#3C8B3F" transform="translate(184,312)"/>
<path d="M0 0 C18.48 0 36.96 0 56 0 C56 2.64 56 5.28 56 8 C37.52 8 19.04 8 0 8 C0 5.36 0 2.72 0 0 Z " fill="#3C8B3F" transform="translate(264,272)"/>
<path d="M0 0 C18.48 0 36.96 0 56 0 C56 2.64 56 5.28 56 8 C37.52 8 19.04 8 0 8 C0 5.36 0 2.72 0 0 Z " fill="#3C8B3F" transform="translate(184,272)"/>
<path d="M0 0 C2.31 0 4.62 0 7 0 C7 2.31 7 4.62 7 7 C5.83040013 6.02433888 4.66438823 5.044375 3.5 4.0625 C2.8503125 3.51722656 2.200625 2.97195312 1.53125 2.41015625 C1.0259375 1.94480469 0.520625 1.47945312 0 1 C0 0.67 0 0.34 0 0 Z " fill="#4BAE4F" transform="translate(409,176)"/>
</svg>
